<svg width="180" height="54" viewBox="0 0 180 54" fill="none" xmlns="http://www.w3.org/2000/svg">
<path d="M35.9922 36.9162V17.0218H43.4242C44.9467 17.0218 46.2241 17.3067 47.2563 17.8766C48.295 18.4465 49.0788 19.2301 49.6078 20.2274C50.1433 21.2182 50.411 22.3451 50.411 23.6079C50.411 24.8837 50.1433 26.017 49.6078 27.0078C49.0724 27.9987 48.2821 28.779 47.237 29.3489C46.1918 29.9123 44.9048 30.194 43.3758 30.194H38.4502V27.2312H42.892C43.7822 27.2312 44.5112 27.0758 45.079 26.765C45.6467 26.4541 46.066 26.0267 46.337 25.4827C46.6144 24.9387 46.7531 24.3138 46.7531 23.6079C46.7531 22.902 46.6144 22.2803 46.337 21.7428C46.066 21.2053 45.6435 20.7876 45.0693 20.4897C44.5016 20.1853 43.7693 20.0331 42.8726 20.0331H39.5824V36.9162H35.9922Z" fill="white"/>
<path d="M55.7877 28.1735V36.9162H52.2846V17.0218H55.7103V24.5307H55.8845C56.2329 23.6888 56.7716 23.0251 57.5006 22.5393C58.236 22.0472 59.1715 21.8011 60.3069 21.8011C61.3392 21.8011 62.2391 22.018 63.0068 22.4519C63.7746 22.8858 64.3681 23.5205 64.7874 24.3559C65.2132 25.1913 65.4261 26.2113 65.4261 27.4158V36.9162H61.923V27.9598C61.923 26.956 61.6649 26.1756 61.1488 25.6187C60.6392 25.0553 59.9231 24.7736 59.0005 24.7736C58.3812 24.7736 57.8264 24.9096 57.3361 25.1816C56.8522 25.4471 56.4716 25.8324 56.1942 26.3376C55.9232 26.8427 55.7877 27.4547 55.7877 28.1735Z" fill="white"/>
<path d="M67.9069 36.9162V21.9954H71.41V36.9162H67.9069ZM69.6682 19.8777C69.1133 19.8777 68.6359 19.6931 68.2359 19.324C67.836 18.9484 67.636 18.4983 67.636 17.9737C67.636 17.4427 67.836 16.9926 68.2359 16.6235C68.6359 16.2479 69.1133 16.0601 69.6682 16.0601C70.2294 16.0601 70.7068 16.2479 71.1004 16.6235C71.5004 16.9926 71.7003 17.4427 71.7003 17.9737C71.7003 18.4983 71.5004 18.9484 71.1004 19.324C70.7068 19.6931 70.2294 19.8777 69.6682 19.8777Z" fill="white"/>
<path d="M77.4254 17.0218V36.9162H73.9223V17.0218H77.4254Z" fill="white"/>
<path d="M84.215 37.2173C83.273 37.2173 82.4247 37.0489 81.6699 36.7122C80.9215 36.369 80.328 35.8638 79.8893 35.1968C79.457 34.5298 79.2409 33.7073 79.2409 32.7294C79.2409 31.8875 79.3958 31.1914 79.7054 30.6409C80.0151 30.0904 80.4377 29.6501 80.9731 29.3198C81.5086 28.9895 82.1118 28.7402 82.7827 28.5718C83.4601 28.3969 84.1601 28.2707 84.8827 28.1929C85.7536 28.1023 86.46 28.0213 87.0019 27.9501C87.5439 27.8724 87.9374 27.7558 88.1826 27.6004C88.4342 27.4385 88.56 27.1892 88.56 26.8524V26.7941C88.56 26.0623 88.3438 25.4957 87.9116 25.0942C87.4794 24.6926 86.8568 24.4919 86.0439 24.4919C85.1859 24.4919 84.5053 24.6797 84.0021 25.0553C83.5053 25.4309 83.1698 25.8745 82.9956 26.3861L79.7248 25.9198C79.9828 25.0132 80.4086 24.2555 81.0022 23.6468C81.5957 23.0315 82.3215 22.5717 83.1795 22.2674C84.0375 21.9565 84.9859 21.8011 86.0246 21.8011C86.7407 21.8011 87.4535 21.8853 88.1632 22.0536C88.8729 22.222 89.5212 22.5005 90.1083 22.8891C90.6954 23.2711 91.1663 23.7925 91.5211 24.453C91.8824 25.1136 92.0631 25.9393 92.0631 26.9301V36.9162H88.6954V34.8665H88.5793C88.3664 35.281 88.0664 35.6695 87.6793 36.0322C87.2987 36.3884 86.8181 36.6766 86.2375 36.8968C85.6633 37.1105 84.9891 37.2173 84.215 37.2173ZM85.1246 34.6334C85.8278 34.6334 86.4375 34.4941 86.9536 34.2157C87.4697 33.9307 87.8664 33.5551 88.1438 33.0888C88.4277 32.6226 88.5696 32.1142 88.5696 31.5637V29.8055C88.46 29.8961 88.2729 29.9803 88.0084 30.058C87.7503 30.1358 87.46 30.2038 87.1374 30.262C86.8149 30.3203 86.4955 30.3721 86.1794 30.4175C85.8633 30.4628 85.5891 30.5017 85.3568 30.534C84.8343 30.6053 84.3666 30.7218 83.9537 30.8837C83.5408 31.0456 83.215 31.2723 82.9763 31.5637C82.7376 31.8487 82.6182 32.2178 82.6182 32.6711C82.6182 33.3187 82.8537 33.8077 83.3247 34.138C83.7956 34.4682 84.3956 34.6334 85.1246 34.6334Z" fill="white"/>
<path d="M97.9986 28.1735V36.9162H94.4955V21.9954H97.8438V24.5307H98.018C98.3599 23.6953 98.905 23.0315 99.6534 22.5393C100.408 22.0472 101.34 21.8011 102.45 21.8011C103.476 21.8011 104.369 22.0213 105.131 22.4616C105.898 22.902 106.492 23.5399 106.911 24.3753C107.337 25.2107 107.547 26.2242 107.54 27.4158V36.9162H104.037V27.9598C104.037 26.9625 103.779 26.1821 103.263 25.6187C102.753 25.0553 102.047 24.7736 101.144 24.7736C100.531 24.7736 99.9856 24.9096 99.5082 25.1816C99.0373 25.4471 98.6663 25.8324 98.3954 26.3376C98.1309 26.8427 97.9986 27.4547 97.9986 28.1735Z" fill="white"/>
<path d="M117.434 21.9954V24.7153H108.889V21.9954H117.434ZM110.998 18.4206H114.502V32.4283C114.502 32.901 114.572 33.2637 114.714 33.5163C114.863 33.7623 115.056 33.9307 115.295 34.0214C115.534 34.1121 115.798 34.1574 116.089 34.1574C116.308 34.1574 116.508 34.1412 116.689 34.1088C116.876 34.0764 117.018 34.0473 117.114 34.0214L117.705 36.7705C117.518 36.8352 117.25 36.9065 116.901 36.9842C116.56 37.0619 116.14 37.1072 115.643 37.1202C114.766 37.1461 113.976 37.0133 113.273 36.7219C112.569 36.424 112.011 35.9642 111.598 35.3425C111.192 34.7208 110.992 33.9437 110.998 33.0111V18.4206Z" fill="white"/>
<path d="M123.096 28.1735V36.9162H119.593V17.0218H123.018V24.5307H123.193C123.541 23.6888 124.08 23.0251 124.809 22.5393C125.544 22.0472 126.48 21.8011 127.615 21.8011C128.647 21.8011 129.547 22.018 130.315 22.4519C131.083 22.8858 131.676 23.5205 132.096 24.3559C132.521 25.1913 132.734 26.2113 132.734 27.4158V36.9162H129.231V27.9598C129.231 26.956 128.973 26.1756 128.457 25.6187C127.947 25.0553 127.231 24.7736 126.309 24.7736C125.689 24.7736 125.134 24.9096 124.644 25.1816C124.16 25.4471 123.78 25.8324 123.502 26.3376C123.231 26.8427 123.096 27.4547 123.096 28.1735Z" fill="white"/>
<path d="M135.215 36.9162V21.9954H138.612V24.4822H138.767C139.037 23.6208 139.502 22.9571 140.16 22.4908C140.825 22.018 141.583 21.7817 142.434 21.7817C142.628 21.7817 142.844 21.7914 143.083 21.8108C143.328 21.8237 143.531 21.8464 143.692 21.8788V25.1136C143.544 25.0618 143.308 25.0164 142.986 24.9776C142.67 24.9322 142.363 24.9096 142.066 24.9096C141.428 24.9096 140.854 25.0488 140.344 25.3273C139.841 25.5993 139.444 25.9781 139.154 26.4638C138.863 26.9495 138.718 27.5097 138.718 28.1444V36.9162H135.215Z" fill="white"/>
<path d="M144.929 36.9162V21.9954H148.433V36.9162H144.929ZM146.691 19.8777C146.136 19.8777 145.658 19.6931 145.258 19.324C144.859 18.9484 144.659 18.4983 144.659 17.9737C144.659 17.4427 144.859 16.9926 145.258 16.6235C145.658 16.2479 146.136 16.0601 146.691 16.0601C147.252 16.0601 147.729 16.2479 148.123 16.6235C148.523 16.9926 148.723 17.4427 148.723 17.9737C148.723 18.4983 148.523 18.9484 148.123 19.324C147.729 19.6931 147.252 19.8777 146.691 19.8777Z" fill="white"/>
<path d="M158.474 21.9954V24.7153H149.687V21.9954H158.474ZM151.884 36.9162V20.5868C151.884 19.583 152.09 18.7476 152.503 18.0806C152.922 17.4136 153.483 16.9149 154.187 16.5846C154.89 16.2543 155.67 16.0892 156.529 16.0892C157.135 16.0892 157.674 16.1378 158.145 16.2349C158.616 16.3321 158.964 16.4195 159.19 16.4972L158.493 19.2171C158.345 19.1718 158.158 19.1265 157.932 19.0811C157.706 19.0293 157.454 19.0034 157.177 19.0034C156.525 19.0034 156.064 19.1621 155.793 19.4794C155.529 19.7903 155.396 20.2371 155.396 20.82V36.9162H151.884Z" fill="white"/>
<path d="M162.304 42.5115C161.827 42.5115 161.385 42.4726 160.979 42.3949C160.579 42.3237 160.259 42.2395 160.021 42.1424L160.833 39.403C161.343 39.5519 161.798 39.6232 162.198 39.6167C162.598 39.6102 162.95 39.4839 163.253 39.2378C163.562 38.9982 163.824 38.5967 164.037 38.0333L164.337 37.227L158.946 21.9954H162.662L166.088 33.2637H166.243L169.678 21.9954H173.404L167.453 38.723C167.175 39.5131 166.807 40.1898 166.349 40.7532C165.891 41.3231 165.33 41.757 164.666 42.0549C164.008 42.3593 163.22 42.5115 162.304 42.5115Z" fill="white"/>
<path d="M175.965 37.1299C175.378 37.1299 174.874 36.9227 174.455 36.5082C174.036 36.0937 173.829 35.5886 173.836 34.9928C173.829 34.4099 174.036 33.9113 174.455 33.4968C174.874 33.0824 175.378 32.8751 175.965 32.8751C176.532 32.8751 177.026 33.0824 177.445 33.4968C177.871 33.9113 178.087 34.4099 178.094 34.9928C178.087 35.3878 177.984 35.7473 177.784 36.0711C177.59 36.3949 177.332 36.6539 177.01 36.8482C176.694 37.036 176.345 37.1299 175.965 37.1299Z" fill="white"/>
<path d="M24.0138 28.5387L13.369 39.0532L2.89453 28.7097L13.369 17.9387L24.0138 28.5387Z" fill="#515AE0"/>
<path d="M26.9749 22.5589C26.9749 18.3098 23.7388 15.2073 19.6513 15.0363C16.9261 14.9508 15.0526 16.1435 13.3711 17.9387L24.0159 28.5387C25.8894 26.829 26.9749 25.1273 26.9749 22.5589Z" fill="#A4AAFF"/>
<path d="M7.49823 15.0323C3.26538 15.0323 0.174614 18.2808 0.00429756 22.3839C-0.0808611 25.1195 1.10706 27.0217 2.89538 28.7097L13.3699 17.9387C11.6667 16.0581 10.0569 15.0323 7.49823 15.0323Z" fill="#45E365"/>
</svg>
