<svg width="159" height="141" viewBox="0 0 159 141" fill="none" xmlns="http://www.w3.org/2000/svg">
<g id="Group 28">
<path id="Vector 15" d="M141 79L78.5 140.5L17 80L78.5 17L141 79Z" fill="#272FA0"/>
<path id="Ellipse 59" d="M158.374 44.0233C158.374 19.1705 139.373 1.02327 115.374 0.0232759C99.373 -0.476726 88.373 6.49963 78.5 16.9996L141 78.9997C152 68.9997 158.374 59.0462 158.374 44.0233Z" fill="#535EFF"/>
<path id="Ellipse 60" d="M44.0252 2.85932e-05C19.1724 2.96795e-05 1.02523 19.0005 0.0252327 43C-0.474769 59.0005 6.5 70.127 17 80L78.5 17C68.5 6 59.0481 2.79365e-05 44.0252 2.85932e-05Z" fill="#39D559"/>
</g>
</svg>
